<svg width="1600" height="1200" viewBox="0 0 1600 1200" fill="none" xmlns="http://www.w3.org/2000/svg">
  <defs>
    <linearGradient id="bg-automation" x1="130" y1="80" x2="1450" y2="1130" gradientUnits="userSpaceOnUse">
      <stop stop-color="#121F33"/>
      <stop offset="1" stop-color="#091018"/>
    </linearGradient>
  </defs>
  <rect width="1600" height="1200" rx="44" fill="url(#bg-automation)"/>
  <circle cx="1240" cy="196" r="220" fill="#F08648" fill-opacity="0.08"/>
  <circle cx="286" cy="1038" r="250" fill="#58C7B2" fill-opacity="0.08"/>
  <rect x="86" y="82" width="1428" height="1036" rx="34" fill="#0E1623" stroke="#30435C"/>
  <rect x="86" y="82" width="1428" height="64" rx="34" fill="#111A28"/>
  <text x="134" y="124" fill="#E8EEF7" font-family="Segoe UI, Arial, sans-serif" font-size="26" font-weight="700">Orquestra • Automações e auditoria</text>
  <rect x="134" y="194" width="496" height="398" rx="28" fill="#111C2D" stroke="#30435C"/>
  <text x="170" y="248" fill="#F7FBFF" font-family="Segoe UI, Arial, sans-serif" font-size="34" font-weight="800">Regras de automação</text>
  <text x="170" y="286" fill="#97AAC6" font-family="Segoe UI, Arial, sans-serif" font-size="22">Triggers, ações e confiabilidade operacional.</text>
  <rect x="170" y="336" width="424" height="74" rx="22" fill="#172538"/>
  <rect x="170" y="430" width="424" height="74" rx="22" fill="#172538"/>
  <rect x="170" y="524" width="424" height="74" rx="22" fill="#172538"/>
  <text x="198" y="370" fill="#F7FBFF" font-family="Segoe UI, Arial, sans-serif" font-size="24" font-weight="700">Escalonamento de aprovação final</text>
  <text x="198" y="462" fill="#F7FBFF" font-family="Segoe UI, Arial, sans-serif" font-size="24" font-weight="700">Handler de exceção de TI</text>
  <text x="198" y="556" fill="#F7FBFF" font-family="Segoe UI, Arial, sans-serif" font-size="24" font-weight="700">Digest de compliance</text>
  <text x="498" y="370" fill="#58C7B2" font-family="Segoe UI, Arial, sans-serif" font-size="18" text-anchor="end">99,4%</text>
  <text x="498" y="462" fill="#58C7B2" font-family="Segoe UI, Arial, sans-serif" font-size="18" text-anchor="end">98,8%</text>
  <text x="498" y="556" fill="#58C7B2" font-family="Segoe UI, Arial, sans-serif" font-size="18" text-anchor="end">97,9%</text>
  <rect x="664" y="194" width="802" height="398" rx="28" fill="#111C2D" stroke="#30435C"/>
  <text x="700" y="248" fill="#F7FBFF" font-family="Segoe UI, Arial, sans-serif" font-size="34" font-weight="800">Fluxo de alerta até a resposta</text>
  <text x="700" y="286" fill="#97AAC6" font-family="Segoe UI, Arial, sans-serif" font-size="22">A plataforma explicita o caminho entre sinal, decisão e trilha de auditoria.</text>
  <rect x="726" y="360" width="196" height="124" rx="26" fill="#2A1820"/>
  <rect x="968" y="360" width="196" height="124" rx="26" fill="#2B2417"/>
  <rect x="1210" y="360" width="196" height="124" rx="26" fill="#173428"/>
  <text x="824" y="416" fill="#F7FBFF" font-family="Segoe UI, Arial, sans-serif" font-size="28" font-weight="800" text-anchor="middle">Alerta</text>
  <text x="824" y="450" fill="#F6A0A7" font-family="Segoe UI, Arial, sans-serif" font-size="20" text-anchor="middle">SLA em risco</text>
  <text x="1066" y="416" fill="#F7FBFF" font-family="Segoe UI, Arial, sans-serif" font-size="28" font-weight="800" text-anchor="middle">Automação</text>
  <text x="1066" y="450" fill="#F3C56B" font-family="Segoe UI, Arial, sans-serif" font-size="20" text-anchor="middle">Escalona owner</text>
  <text x="1308" y="416" fill="#F7FBFF" font-family="Segoe UI, Arial, sans-serif" font-size="28" font-weight="800" text-anchor="middle">Auditoria</text>
  <text x="1308" y="450" fill="#58C7B2" font-family="Segoe UI, Arial, sans-serif" font-size="20" text-anchor="middle">Evento registrado</text>
  <line x1="922" y1="422" x2="968" y2="422" stroke="#C7D2E2" stroke-width="6"/>
  <line x1="1164" y1="422" x2="1210" y2="422" stroke="#C7D2E2" stroke-width="6"/>
  <rect x="134" y="640" width="1332" height="396" rx="28" fill="#111C2D" stroke="#30435C"/>
  <text x="170" y="696" fill="#F7FBFF" font-family="Segoe UI, Arial, sans-serif" font-size="34" font-weight="800">Trilha de auditoria</text>
  <text x="170" y="732" fill="#97AAC6" font-family="Segoe UI, Arial, sans-serif" font-size="22">Quem fez, quando fez, por que o fluxo mudou e qual alvo foi afetado.</text>
  <rect x="170" y="784" width="1260" height="70" rx="22" fill="#172538"/>
  <rect x="170" y="874" width="1260" height="70" rx="22" fill="#172538"/>
  <text x="202" y="826" fill="#F7FBFF" font-family="Segoe UI, Arial, sans-serif" font-size="24" font-weight="700">09:26 • Fábio Lima • Aprovação final solicitada • run-104</text>
  <text x="202" y="916" fill="#F7FBFF" font-family="Segoe UI, Arial, sans-serif" font-size="24" font-weight="700">09:04 • Automação de service desk • Bloqueio registrado • run-097</text>
  <text x="1362" y="826" fill="#F3C56B" font-family="Segoe UI, Arial, sans-serif" font-size="18" text-anchor="end">Atenção</text>
  <text x="1362" y="916" fill="#F6A0A7" font-family="Segoe UI, Arial, sans-serif" font-size="18" text-anchor="end">Crítico</text>
</svg>
